<svg xmlns="http://www.w3.org/2000/svg" width="1047.232" height="657.479" viewBox="0 0 1047.232 657.479"><g transform="translate(0.023 -0.05)"><path d="M205.532,536.013l-5.563-3.458c-.531-.327-1.052-.681-1.583-1.017a52.938,52.938,0,0,0,5.35-103.134l.274,21.808-11.983-23.727h-.15a52.947,52.947,0,0,0-55.343,50.409c-.053,1.017,0,2.007,0,3.007a63.316,63.316,0,0,1-10.462-15.45c-5.067-11.311-5.165-24.125-4.767-39.708.8-30.864,2.131-61.976,3.865-92.982a52.929,52.929,0,0,0,47.013-50.09c.071-1.618.044-3.21,0-4.8a7.6,7.6,0,0,0-.062-1.185c-.106-1.539-.248-3.06-.486-4.563a4.028,4.028,0,0,0-.133-.725c-.212-1.273-.478-2.529-.778-3.767-.115-.469-.23-.929-.354-1.388-.371-1.353-.778-2.653-1.256-4-.159-.433-.336-.884-.513-1.291-.371-.964-.778-1.919-1.212-2.857-.23-.5-.451-.99-.69-1.477-.071-.124-.115-.256-.186-.38h0a52.92,52.92,0,0,0-62.153-26.849l.354,28.388-11.85-23.453a52.681,52.681,0,0,0-25.249,57.05h-.106c.08.38.195.743.283,1.114.168.7.345,1.388.539,2.078q.385,1.327.822,2.653c.221.654.433,1.3.681,1.946.363.937.769,1.848,1.176,2.759.239.531.451,1.079.708,1.6q1.008,2.052,2.193,4.006c.274.46.584.884.884,1.335.566.884,1.132,1.769,1.769,2.591.38.522.787,1.026,1.185,1.53.584.734,1.176,1.459,1.769,2.158.433.5.884.991,1.335,1.468.654.69,1.318,1.353,2.007,2,.46.433.884.884,1.388,1.291.778.7,1.592,1.353,2.414,2,.416.327.822.663,1.247.982q1.884,1.327,3.882,2.653c.248.15.522.274.769.424,1.123.654,2.255,1.282,3.422,1.848.5.248,1.017.469,1.53.7.955.424,1.919.84,2.91,1.22l1.769.619c.973.327,1.963.637,2.963.884.584.159,1.176.327,1.769.469,1.079.256,2.184.469,3.3.663l.212.044q-1.088,19.624-1.946,39.257A52.911,52.911,0,0,0,35.026,347.67l9.357,25.646L25.13,354.834A52.761,52.761,0,0,0,7.992,391.4a51.735,51.735,0,0,0,1.344,14.583A52.92,52.92,0,0,0,106.669,420.4c0,1.327-.088,2.653-.124,3.988-.354,13.743-.8,30.847,6.058,46.12,4.643,10.347,12.107,18.757,19.456,26.292,4.8,4.9,9.781,9.648,14.884,14.238a53.142,53.142,0,0,0,19.12,15.919c8.384,6.456,17.068,12.531,26.044,18.138l5.607,3.484c5.041,3.122,10.206,6.332,15.264,9.666-.884-.088-1.769-.186-2.653-.23a52.964,52.964,0,0,0-52.124,34.49l33.075,26.911-36.383-8.437a52.965,52.965,0,0,0,75.958,47.614l-2.459,3.051q-2.441,3.033-4.82,6.031c-21.525,27.265-27.512,53.141-16.856,72.871l12.965-7c-10.374-19.208,5.227-43.794,15.45-56.741q2.335-2.945,4.74-5.925c13.752-17.086,29.334-36.453,28.954-60.207C268.224,574.872,233.5,553.329,205.532,536.013Z" transform="translate(-7.95 -95.356)" fill="#f2f2f2"/><path d="M902.984,464.731l6.933-4.316c.663-.416,1.309-.884,1.972-1.273a66.03,66.03,0,0,1-6.677-128.666l-.345,27.212,14.955-29.6H920a66.062,66.062,0,0,1,69.06,62.9c.062,1.265,0,2.5,0,3.75,5.209-5.934,9.931-12.3,13.053-19.27,6.332-14.15,6.456-30.068,5.952-49.524-.991-38.514-2.653-77.32-4.82-116a66.026,66.026,0,0,1-58.651-62.5c-.088-2.016-.062-4.006,0-5.987a13.942,13.942,0,0,1,.08-1.486c.124-1.919.31-3.82.593-5.686.044-.31.124-.61.168-.884q.407-2.388.982-4.7c.141-.575.283-1.159.433-1.769.469-1.68.973-3.352,1.565-4.979.195-.548.424-1.07.637-1.61.478-1.212.982-2.4,1.521-3.537.283-.61.557-1.229.884-1.839.071-.15.141-.318.221-.469h0a65.973,65.973,0,0,1,77.541-33.491l-.442,35.374,14.786-29.255a65.681,65.681,0,0,1,31.492,71.174h.08c-.106.469-.257.884-.363,1.388-.212.884-.433,1.769-.672,2.591-.309,1.105-.663,2.184-1.026,3.263-.274.814-.539,1.627-.884,2.432-.451,1.167-.955,2.308-1.468,3.44-.3.663-.566,1.344-.884,2-.84,1.707-1.769,3.378-2.733,5-.336.575-.725,1.114-1.088,1.671-.708,1.1-1.424,2.176-2.193,3.228-.478.654-.982,1.273-1.477,1.91-.725.884-1.459,1.822-2.237,2.7q-.8.884-1.671,1.831c-.8.884-1.645,1.68-2.494,2.485-.575.548-1.141,1.1-1.769,1.618-.982.884-1.99,1.68-3.024,2.485-.513.407-1.017.84-1.548,1.229-1.566,1.15-3.175,2.246-4.846,3.263-.309.186-.646.345-.964.531q-2.087,1.238-4.263,2.308c-.628.31-1.273.575-1.91.884-1.194.539-2.4,1.052-3.626,1.521-.725.274-1.45.531-2.175.778-1.22.416-2.45.787-3.7,1.132-.734.2-1.468.407-2.22.593-1.353.318-2.724.584-4.112.822l-.274.053q1.38,24.488,2.432,48.985a65.991,65.991,0,0,1,91.655-28.653l-11.665,31.979,24.011-23.055a65.8,65.8,0,0,1,21.5,45.562,64.506,64.506,0,0,1-1.672,18.191,66.026,66.026,0,0,1-121.441,17.988c0,1.654.115,3.325.159,4.979.442,17.148.991,38.487-7.553,57.537-5.792,12.921-15.114,23.4-24.329,32.8q-8.994,9.18-18.572,17.767a66.274,66.274,0,0,1-23.878,19.836c-10.462,8.057-21.3,15.636-32.492,22.64l-7,4.342c-6.288,3.891-12.726,7.9-19.049,12.054,1.114-.106,2.211-.23,3.343-.283a66.079,66.079,0,0,1,64.992,43L920.7,568.723l45.394-10.515a66.088,66.088,0,0,1-94.7,59.482c1.026,1.273,2.043,2.547,3.069,3.812,2.025,2.52,4.05,5.032,6.023,7.526,26.849,34,34.322,66.327,21.021,90.912l-16.166-8.729c12.938-23.966-6.527-54.636-19.288-70.749-1.937-2.45-3.918-4.917-5.908-7.393-17.157-21.313-36.6-45.474-36.126-75.109C824.762,513.2,868.131,486.327,902.984,464.731Z" transform="translate(-102.32 -78.25)" fill="#f2f2f2"/><ellipse cx="454.562" cy="24.32" rx="454.562" ry="24.32" transform="translate(62.168 608.889)" fill="#3f3d56"/><ellipse cx="406.807" cy="19.456" rx="406.807" ry="19.456" transform="translate(109.039 606.236)" opacity="0.2"/><path d="M928.173,250.626V718.047a6.376,6.376,0,0,1-6.376,6.376H161.607a6.367,6.367,0,0,1-6.367-6.376V250.626a6.367,6.367,0,0,1,6.367-6.376H921.77a6.376,6.376,0,0,1,6.4,6.376Z" transform="translate(-24.985 -97.44)" fill="#3f3d56"/><path d="M928.173,248.5v14.318H155.24V248.5a4.254,4.254,0,0,1,4.254-4.254H923.919a4.254,4.254,0,0,1,4.254,4.254Z" transform="translate(-24.985 -97.44)" fill="#cbceda"/><circle cx="4.422" cy="4.422" r="4.422" transform="translate(139.983 151.232)" fill="#6c63ff"/><circle cx="4.422" cy="4.422" r="4.422" transform="translate(152.364 151.232)" fill="#6c63ff"/><circle cx="4.422" cy="4.422" r="4.422" transform="translate(164.745 151.232)" fill="#6c63ff"/><rect width="235.24" height="12.381" transform="translate(399.11 211.811)" fill="#6c63ff" opacity="0.2"/><rect width="181.294" height="212.247" transform="translate(203.666 337.39)" fill="#6c63ff" opacity="0.2"/><rect width="181.294" height="212.247" transform="translate(425.641 337.39)" fill="#6c63ff" opacity="0.2"/><rect width="181.294" height="212.247" transform="translate(828.91 549.637) rotate(180)" fill="#6c63ff" opacity="0.2"/><path d="M329.437,579.678c-.539,3.193-3.7,5.2-6.677,6.447s-6.314,2.282-8.225,4.891c-2.573,3.537-1.495,8.6.884,12.275,2.7,4.21,6.783,7.314,10.78,10.321a19.455,19.455,0,0,0,5.837,3.4,17.352,17.352,0,0,0,4.97.531,90.636,90.636,0,0,0,16.069-1.441c6.8-1.238,14.07-3.714,17.687-9.622,2.936-4.837,2.75-10.878,2.467-16.538-3.2-.274-6.067-2.016-8.791-3.705-3.219-2-6.695-4.325-7.738-7.959-1.1-3.812.654-8.516-1.954-11.5-1.769-2.016-4.767-2.255-7.437-2.326q-5.439-.141-10.869-.15c-2.494,0-8.065-1.043-10.117.619C322.548,567.943,330.118,575.628,329.437,579.678Z" transform="translate(-43.234 -134.413)" fill="#a0616a"/><path d="M329.437,579.678c-.539,3.193-3.7,5.2-6.677,6.447s-6.314,2.282-8.225,4.891c-2.573,3.537-1.495,8.6.884,12.275,2.7,4.21,6.783,7.314,10.78,10.321a19.455,19.455,0,0,0,5.837,3.4,17.352,17.352,0,0,0,4.97.531,90.636,90.636,0,0,0,16.069-1.441c6.8-1.238,14.07-3.714,17.687-9.622,2.936-4.837,2.75-10.878,2.467-16.538-3.2-.274-6.067-2.016-8.791-3.705-3.219-2-6.695-4.325-7.738-7.959-1.1-3.812.654-8.516-1.954-11.5-1.769-2.016-4.767-2.255-7.437-2.326q-5.439-.141-10.869-.15c-2.494,0-8.065-1.043-10.117.619C322.548,567.943,330.118,575.628,329.437,579.678Z" transform="translate(-43.234 -134.413)" opacity="0.1"/><circle cx="25.938" cy="25.938" r="25.938" transform="translate(272.62 391.566)" fill="#a0616a"/><path d="M392.332,617.581A11.179,11.179,0,0,1,390.872,622a7.56,7.56,0,0,1-.8,1.026,23.049,23.049,0,0,1-5.421,3.776c-5.306,3.228-11.258,7.429-12.248,13.575a46.508,46.508,0,0,1-1.335,5.66c-1.238,4.21-2.857,8.348-3.8,12.558a28.547,28.547,0,0,0-.787,7.455,22.62,22.62,0,0,0,.212,2.344c.84,5.961,3.9,11.311,7.5,16.4.389.548.778,1.1,1.176,1.636l.256.345H290.957c.142-.539.283-1.07.416-1.61a2.53,2.53,0,0,1,.062-.248c.84-3.369,1.574-6.757,2.087-10.17a64.743,64.743,0,0,0,.787-9.162c0-2.653.584-5.589,2.8-7.075.15-.539.292-1.088.433-1.627a50.541,50.541,0,0,0-.124-24.435c-.124-.5-.265-.99-.4-1.486-.062-.221-.133-.442-.195-.663a72.442,72.442,0,0,1-1.875-7.172c-.522-2.892-.637-5.969-2.176-8.463s-4.218-3.953-6.6-5.642a15.125,15.125,0,0,1-3.122-2.839h0a6.969,6.969,0,0,1-1.68-4.068,6.012,6.012,0,0,1,.1-1.327,10.179,10.179,0,0,1,2.7-4.82c5.377-5.916,13.593-8.4,21.667-8.508h0c1.247,0,2.485,0,3.714.106a10.462,10.462,0,0,1,4.165.937,6.322,6.322,0,0,1,2.078,1.716,10.294,10.294,0,0,1,1.769,3.343,18.572,18.572,0,0,1,.708,2.989c.5,3.157.6,6.518,2.264,9.242,3.016,4.935,9.887,5.837,15.565,4.767a35.109,35.109,0,0,0,24.081-17.687,32.5,32.5,0,0,1,1.769-3.21,8.02,8.02,0,0,1,1.2-1.424,49.355,49.355,0,0,1,21.552,9.728,23.538,23.538,0,0,1,5.112,5.306C392.473,607.464,393.074,612.7,392.332,617.581Z" transform="translate(-39.571 -137.128)" fill="#f2f2f2"/><path d="M396.177,672.669a24.9,24.9,0,0,1-3.246,6.951,16.734,16.734,0,0,1-3.75,4.793c-3.139,2.467-7.482,2.414-11.5,2.184h-.318l-1.99-.115L363.96,685.8a64.365,64.365,0,0,1-9.021-.964c-.8-.159-1.583-.354-2.37-.566-4.422-1.185-8.746-2.954-13.318-3.21-1.327-.08-2.653,0-4.006,0h-.371a19.937,19.937,0,0,1-2.657-.177c-1.446-.212-2.87-.672-4.347-.742-3.785-.195-7.128,2.078-10.356,4.148l-.884.548a39.787,39.787,0,0,1-7.323,3.644H293.971a5.058,5.058,0,0,1-.716-.663,5.514,5.514,0,0,1-.69-.946c-.044-.08-.088-.159-.124-.239a8.066,8.066,0,0,1,0-6.819,13.345,13.345,0,0,1,2.237-3.36,30.945,30.945,0,0,1,3.237-3.042c5.961-4.97,12.814-9.162,20.438-10.612.531-.1,1.07-.186,1.6-.256a70.98,70.98,0,0,1,11.5-.38l3.6.071,15.078.309h.416c6.058.115,12.425.159,17.9-2.255a21.036,21.036,0,0,0,2.034-1.044,3.829,3.829,0,0,0,1.406-1.22,4.218,4.218,0,0,0,.416-2.3l-.053-7.959-.106-15.344h0q0-5.651-.071-11.293a7.756,7.756,0,0,1,2.167-6.429c2.2-2.768,7.57-12.54,11.373-12.7a3.06,3.06,0,0,1,1.9.531h0c3.237,2.158,3.254,10.338,3.334,13.1q.133,4.572.4,9.135a310.284,310.284,0,0,0,4.422,37.143C396.318,665.435,397.026,669.131,396.177,672.669Z" transform="translate(-40.763 -138.809)" fill="#a0616a"/><path d="M396.177,672.669a24.9,24.9,0,0,1-3.246,6.951,16.734,16.734,0,0,1-3.75,4.793c-3.139,2.467-7.482,2.414-11.5,2.184h-.318l-1.99-.115L363.96,685.8a64.365,64.365,0,0,1-9.021-.964c-.8-.159-1.583-.354-2.37-.566-4.422-1.185-8.746-2.954-13.318-3.21-1.327-.08-2.653,0-4.006,0h-.371a19.937,19.937,0,0,1-2.657-.177c-1.446-.212-2.87-.672-4.347-.742-3.785-.195-7.128,2.078-10.356,4.148l-.884.548a39.787,39.787,0,0,1-7.323,3.644H293.971a5.058,5.058,0,0,1-.716-.663,5.514,5.514,0,0,1-.69-.946c-.044-.08-.088-.159-.124-.239a8.066,8.066,0,0,1,0-6.819,13.345,13.345,0,0,1,2.237-3.36,30.945,30.945,0,0,1,3.237-3.042c5.961-4.97,12.814-9.162,20.438-10.612.531-.1,1.07-.186,1.6-.256a70.98,70.98,0,0,1,11.5-.38l3.6.071,15.078.309h.416c6.058.115,12.425.159,17.9-2.255a21.036,21.036,0,0,0,2.034-1.044,3.829,3.829,0,0,0,1.406-1.22,4.218,4.218,0,0,0,.416-2.3l-.053-7.959-.106-15.344h0q0-5.651-.071-11.293a7.756,7.756,0,0,1,2.167-6.429c2.2-2.768,7.57-12.54,11.373-12.7a3.06,3.06,0,0,1,1.9.531h0c3.237,2.158,3.254,10.338,3.334,13.1q.133,4.572.4,9.135a310.284,310.284,0,0,0,4.422,37.143C396.318,665.435,397.026,669.131,396.177,672.669Z" transform="translate(-40.763 -138.809)" opacity="0.1"/><path d="M323.34,503.632c-2.246.336-4.731.937-5.952,2.848-.955,1.486-.884,3.369-1.212,5.1a11.32,11.32,0,0,1-4.351,6.96c-1.857,1.371-4.1,2.14-6.022,3.422s-3.617,3.378-3.361,5.678c.221,2.008,1.822,3.537,2.573,5.43,1.388,3.449-.248,7.3-1.769,10.692s-2.954,7.393-1.212,10.674c1.848,3.458,6.615,4.767,7.959,8.437,1.671,4.422-2.653,9.135-2.1,13.849.478,3.873,4.3,6.642,8.163,7.208a6.611,6.611,0,0,0,5.306-1.15,6.952,6.952,0,0,0,1.91-5.1c.239-7.2-3.856-13.8-5.05-20.915a11.223,11.223,0,0,1,.646-6.969c.69-1.335,1.769-2.432,2.37-3.82,1.194-2.892-.159-6.385,1.123-9.242a24.2,24.2,0,0,1,2.5-3.537c.822-1.194,1.371-2.777.725-4.077a14.283,14.283,0,0,1,5.262,5.978c1.672-.336,1.627-3.927,3.263-3.414.46.15.725.637,1.026,1.017a4.608,4.608,0,0,0,4.9,1.291,9.631,9.631,0,0,0,4.316-3.1l2.795,3.467a3.192,3.192,0,0,1,3.069-1.946,7.375,7.375,0,0,1,3.626,1.247c5.306,3.175,9.286,9.675,7.252,15.512-.884,2.494-2.653,4.537-3.838,6.907s-1.486,5.554.407,7.393a14.716,14.716,0,0,1,1.22,1.114c1.388,1.636.513,4.13.929,6.19.734,3.794,5.209,5.306,8.976,6.191,2.653.6,5.81,1.052,7.667-.884,2.034-2.122,1.123-5.6-.106-8.269s-2.653-5.757-1.335-8.375,5.182-3.537,6.571-6.27c1.769-3.476-1.353-7.287-2.6-10.984-1.707-5.059.195-10.736-1.2-15.919a22.214,22.214,0,0,0-3.909-7.181c-4.13-5.554-9.082-10.657-15.22-13.876-5.8-3.042-11.647-3.537-18.041-2.768C334.881,503.163,329.1,502.774,323.34,503.632Z" transform="translate(-41.868 -127.259)" fill="#3c354c"/><path d="M382.316,632.569a2.14,2.14,0,0,1-1.017-1.406q-2.945-8.278-5.518-16.67a6.483,6.483,0,0,1-.416-3.1,6.032,6.032,0,0,1,2.37-3.228,35.374,35.374,0,0,1,9.684-5.677c2.547-1,6.305-2.777,8.844-1.159,3.148,2.008-.212,7.075-1.362,9.728a100.883,100.883,0,0,1-5.306,10.612C388.993,622.726,383.121,632.888,382.316,632.569Z" transform="translate(-50.435 -138.656)" fill="#f2f2f2"/><path d="M375.314,686.589a5.305,5.305,0,0,1-.831,1.185,2.714,2.714,0,0,1-.318.318,3.712,3.712,0,0,1-.4.345H358.388a39.8,39.8,0,0,1-7.323-3.644l-.884-.548c-3.228-2.069-6.571-4.342-10.356-4.148-1.477.071-2.9.531-4.351.743a19.933,19.933,0,0,1-2.653.177h-.371c-1.335,0-2.653-.062-4.006,0-4.572.256-8.888,2.025-13.318,3.21-.787.212-1.574.407-2.37.566a64.357,64.357,0,0,1-9.021.964l-13.407.8h-.318c-4.006.23-8.348.283-11.5-2.184a16.732,16.732,0,0,1-3.75-4.793,24.9,24.9,0,0,1-3.246-6.951c-.884-3.537-.141-7.234.5-10.816a311.519,311.519,0,0,0,4.8-46.287c.08-2.768.1-10.975,3.352-13.106a2.82,2.82,0,0,1,1.229-.478h0a3.152,3.152,0,0,1,.654,0c3.8.159,9.171,9.931,11.373,12.7a7.756,7.756,0,0,1,2.167,6.429q0,5.447-.071,10.913v.5q-.062,11.621-.15,23.232a4.218,4.218,0,0,0,.416,2.3,2.527,2.527,0,0,0,.46.557,5.87,5.87,0,0,0,.946.663c5.881,3.467,13.106,3.431,19.934,3.3h.416l15.078-.31,3.6-.071a70.953,70.953,0,0,1,11.5.38c.531.071,1.07.159,1.6.256a41.636,41.636,0,0,1,16.184,7.3q2.211,1.565,4.3,3.307a18.415,18.415,0,0,1,5.474,6.4A8.065,8.065,0,0,1,375.314,686.589Z" transform="translate(-38.384 -138.8)" fill="#a0616a"/><path d="M297.285,632.569a2.167,2.167,0,0,0,1.017-1.406q2.945-8.278,5.518-16.67a6.589,6.589,0,0,0,.407-3.1,6.031,6.031,0,0,0-2.37-3.228,35.147,35.147,0,0,0-9.675-5.678c-2.547-1-6.3-2.777-8.844-1.159-3.148,2.008.2,7.075,1.362,9.728a99.125,99.125,0,0,0,5.306,10.612C290.608,622.726,296.48,632.888,297.285,632.569Z" transform="translate(-39.646 -138.656)" fill="#f2f2f2"/><path d="M837.511,519.822c5.262-1.282,9.348,7.429,14.645,6.394,2.909-.566,5.156-4.015,8.1-3.759,3.352.292,4.784,4.873,6.5,8.225,2.98,5.8,9,9.312,14.8,8.614,1.822-2.405,1.477-6.1.548-9.109s-2.344-5.925-2.379-9.127c-.044-4.236,2.282-8.923.177-12.381-1.618-2.653-4.926-2.865-7.358-4.5-1.9-1.273-3.237-3.4-4.829-5.147a15.962,15.962,0,0,0-9.843-5.174c-3.131-.354-6.279.318-9.374.99l-14.468,3.131a4.024,4.024,0,0,0-2.255,1.035,7.793,7.793,0,0,0-1.167,2.963c-1.371,4.492-5.669,6.6-9.18,9.091s-6.845,7.429-4.908,11.629c1.1,2.379,3.679,3.847,3.953,6.518.239,2.388-1.486,4.342-2.892,6.111-5.969,7.482,7.411,11.373,10.612,6.3C831.763,536.032,829.985,521.662,837.511,519.822Z" transform="translate(-101.389 -126.293)" fill="#3c354c"/><path d="M831.023,574.113c-1.256,1.636-2.892,3-3.9,4.8a11.045,11.045,0,0,0-.584,8.286,31.31,31.31,0,0,0,3.776,7.605,44.215,44.215,0,0,0,6.633,8.844,16.139,16.139,0,0,0,9.728,4.829c3.935.292,7.738-1.335,11.3-3.042a12.379,12.379,0,0,0,4.077-2.653,12.635,12.635,0,0,0,1.981-3.6l3.069-7.349a20.243,20.243,0,0,0,1.769-5.642c.318-3.051-.743-6.067-1.769-8.959l-5.616-15.45a5.218,5.218,0,0,0-1.344-2.344,5.068,5.068,0,0,0-2.069-.884,60.066,60.066,0,0,0-10.851-1.769c-2.724-.186-8.906-1.15-11.285.389-2.184,1.424-1.273,5.05-1.53,7.393A18.722,18.722,0,0,1,831.023,574.113Z" transform="translate(-102.55 -133.527)" fill="#a0616a"/><path d="M831.023,574.113c-1.256,1.636-2.892,3-3.9,4.8a11.045,11.045,0,0,0-.584,8.286,31.31,31.31,0,0,0,3.776,7.605,44.215,44.215,0,0,0,6.633,8.844,16.139,16.139,0,0,0,9.728,4.829c3.935.292,7.738-1.335,11.3-3.042a12.379,12.379,0,0,0,4.077-2.653,12.635,12.635,0,0,0,1.981-3.6l3.069-7.349a20.243,20.243,0,0,0,1.769-5.642c.318-3.051-.743-6.067-1.769-8.959l-5.616-15.45a5.218,5.218,0,0,0-1.344-2.344,5.068,5.068,0,0,0-2.069-.884,60.066,60.066,0,0,0-10.851-1.769c-2.724-.186-8.906-1.15-11.285.389-2.184,1.424-1.273,5.05-1.53,7.393A18.722,18.722,0,0,1,831.023,574.113Z" transform="translate(-102.55 -133.527)" opacity="0.1"/><circle cx="24.497" cy="24.497" r="24.497" transform="translate(722.353 387.958)" fill="#a0616a"/><path d="M897.547,609.907c.053,6.756-2.538,13.265-5.218,19.456s-6.084,12.3-8.7,18.66c-.212.513-.416,1.035-.619,1.556q-6.757,17.457-11.957,35.454l-.256.884H794.828c3.467-13.265,6.438-26.531-1.875-35.684-.256-.283-.513-.575-.761-.884-5.439-6.553-7.88-15.494-14.344-21.065-1.486-1.282-3.21-2.414-4.13-4.157a7.554,7.554,0,0,1-.778-3.449,23.414,23.414,0,0,1,.195-3.148c.637-5.748,1.459-11.78,4.926-16.414a24.251,24.251,0,0,1,5.616-5.218,44.812,44.812,0,0,1,15.662-7c6.332-1.45,13.318-1.663,18.483-5.616a21.844,21.844,0,0,1,3.537-2.653l.354-.15a3.679,3.679,0,0,1,3.812.407,5.244,5.244,0,0,1,1.274,2.653q1.406,5.147,2.821,10.294a10.517,10.517,0,0,0,2.131,4.634c2.5,2.6,7.287,2.291,9.233,5.306,1.167,1.831,4.236-.3,5.571-2a75,75,0,0,0,8.357-13.212,21.223,21.223,0,0,1,3.1-5.156,7,7,0,0,1,3.414-2.069,4.6,4.6,0,0,1,1.963-.053c1.91.389,3.307,1.963,4.608,3.414a103.47,103.47,0,0,0,27.185,21.623,4.5,4.5,0,0,1,1.99,1.645,3.405,3.405,0,0,1,.336,1.424A2.675,2.675,0,0,1,897.547,609.907Z" transform="translate(-96.414 -136.281)" fill="#3c354c"/><path d="M841.129,519.534c4.095-.884,7.269,5,11.391,4.3,2.264-.371,4.015-2.653,6.3-2.52,2.609.195,3.723,3.272,5.059,5.518a12.231,12.231,0,0,0,11.5,5.793c1.415-1.618,1.15-4.095.424-6.12s-1.831-3.988-1.857-6.129c0-2.857,1.769-6,.142-8.331-1.256-1.769-3.829-1.928-5.722-3.024a23.96,23.96,0,0,1-3.758-3.458,13.08,13.08,0,0,0-7.65-3.476,26.023,26.023,0,0,0-7.287.663l-11.249,2.1a3.326,3.326,0,0,0-1.769.69,4.875,4.875,0,0,0-.884,1.99c-1.07,3.024-4.422,4.422-7.137,6.111s-5.306,5-3.82,7.818c.884,1.6,2.857,2.582,3.069,4.422.195,1.6-1.15,2.918-2.246,4.1-4.634,5.023,5.766,7.641,8.269,4.227C836.663,530.43,835.274,520.772,841.129,519.534Z" transform="translate(-102.362 -127.252)" fill="#3c354c"/><path d="M923.1,688.768H902.413c.336-8.472-3.113-17.077-3.537-25.717-.159-3.246.115-6.544-.539-9.728a21.3,21.3,0,0,0-.663-2.45c-.522-1.636-1.159-3.245-1.654-4.89-1.645-5.492-1.583-11.329-1.5-17.059q.141-9.489.3-18.961c0-1.645-.486-4.068,1.008-4.758,3.369-1.557,6.872,1.53,9.967,3.537,1.857,1.238,3.98,2.211,5.784,3.537a10.81,10.81,0,0,1,2.75,2.742,15.371,15.371,0,0,1,1.831,4.767q3.759,14.353,6.544,28.945a93.957,93.957,0,0,1,1.769,12.823C925.009,670.612,923.125,679.747,923.1,688.768Z" transform="translate(-110.469 -139.131)" fill="#3c354c"/><path d="M778.64,680.866c-.884,2.158-1.839,4.422-1.707,6.774a10.535,10.535,0,0,0,.708,3.078H758.9a69.147,69.147,0,0,1-2.122-9.728c-.884-6.4-.4-12.921.433-19.341a70.586,70.586,0,0,1,3.246-14.654c2.176-6.093,5.616-11.612,8.543-17.342.69-1.335,1.318-2.839,2.052-4.165,1.574-2.909,3.608-5.05,7.659-3.1,10.073,4.855,14.4,21.861,11.594,31.766a.254.254,0,0,1,0,.08,49.021,49.021,0,0,1-2.989,7.314Q782.752,671.12,778.64,680.866Z" transform="translate(-94.491 -141.08)" fill="#3c354c"/><path d="M594.274,509.009A8.95,8.95,0,0,1,599,513.024c.8,1.672.778,3.626,1.327,5.4,1.159,3.741,4.643,6.19,6.81,9.463,2.936,4.422,3.281,10.055,3.078,15.361s-.884,10.718.442,15.874c.628,2.512,1.7,4.9,2.131,7.455.522,3.1.088,6.332.884,9.374a24.344,24.344,0,0,0,3.944,7.544l6.88,10.055a79.419,79.419,0,0,1-9.082-2.733,16.289,16.289,0,0,0,4.908,7.42l-4.97-6.014a14.257,14.257,0,0,0-3.705-3.537c-1.822-1.035-3.98-1.194-6.031-1.619-3.935-.8-7.88-2.812-9.808-6.359-2.573-4.722-.884-10.657-2.361-15.839-1.052-3.785-3.652-6.907-5.439-10.391-4.059-7.9-3.812-17.21-5.085-26-.548-3.732-1.38-7.437-1.4-11.214,0-2.786.274-8.074,3.193-9.5C587.252,506.577,591.921,508.01,594.274,509.009Z" transform="translate(-74.28 -127.861)" fill="#3f3d56"/><path d="M593.937,578.629c.416,4.616,1.38,10.064,5.589,12,2.379,1.1,5.147.69,7.729,1.114,4.873.787,8.844,4.537,11.143,8.932s3.033,9.383,3.537,14.3c.663,6.146.884,12.823-2.5,18.006-2.733,4.2-7.455,6.757-12.293,8.057a34.3,34.3,0,0,1-28.627-5.306,63.729,63.729,0,0,1-10.533-10.409c-7.013-8.163-14.07-17.112-15.512-27.778-.168-1.212-.15-2.653.884-3.4a3.705,3.705,0,0,1,2.255-.451l6.721.124c1.707,0,3.635,0,4.793-1.282s1.088-2.892,1.044-4.422q-.256-9.728-.513-19.5a2.8,2.8,0,0,1,.442-1.972,2.6,2.6,0,0,1,1.548-.663c3.706-.628,7.579,0,11.2-1.008,3.449-.946,8.844-4.908,11.4-.84C594.388,567.539,593.61,574.7,593.937,578.629Z" transform="translate(-70.911 -134.223)" fill="#ffc1c7"/><path d="M593.937,578.629c.416,4.616,1.38,10.064,5.589,12,2.379,1.1,5.147.69,7.729,1.114,4.873.787,8.844,4.537,11.143,8.932s3.033,9.383,3.537,14.3c.663,6.146.884,12.823-2.5,18.006-2.733,4.2-7.455,6.757-12.293,8.057a34.3,34.3,0,0,1-28.627-5.306,63.729,63.729,0,0,1-10.533-10.409c-7.013-8.163-14.07-17.112-15.512-27.778-.168-1.212-.15-2.653.884-3.4a3.705,3.705,0,0,1,2.255-.451l6.721.124c1.707,0,3.635,0,4.793-1.282s1.088-2.892,1.044-4.422q-.256-9.728-.513-19.5a2.8,2.8,0,0,1,.442-1.972,2.6,2.6,0,0,1,1.548-.663c3.706-.628,7.579,0,11.2-1.008,3.449-.946,8.844-4.908,11.4-.84C594.388,567.539,593.61,574.7,593.937,578.629Z" transform="translate(-70.911 -134.223)" opacity="0.1"/><circle cx="25.691" cy="25.691" r="25.691" transform="translate(480.409 391.761)" fill="#ffc1c7"/><path d="M632.9,664.895a23.944,23.944,0,0,1-.734,3.1,72.89,72.89,0,0,1-2.83,6.978c-.407.946-.787,1.893-1.114,2.865-.256.761-.478,1.539-.672,2.317s-.424,1.831-.584,2.759c-.239,1.371-.416,2.759-.557,4.148H559.367a41.793,41.793,0,0,0-.38-10.17,66.91,66.91,0,0,0-4.139-13.487c-4.271-10.948-9.047-22.109-11.674-33.526v-.044a66.632,66.632,0,0,1-1.627-22.675c.053-.442.115-.884.177-1.344a34.618,34.618,0,0,1,.646-3.414,18.81,18.81,0,0,1,4.271-8.649c3.007-3.237,8.092-4.837,11.992-2.768,2.352,1.247,3.812,3.458,4.979,5.907.743,1.557,1.371,3.2,2.025,4.767a48.639,48.639,0,0,0,10.152,15.167,33.6,33.6,0,0,0,2.582,2.45c.893.778,1.671,1.433,2.547,2.1,2.839,2.184,6.261,4.952,9.967,5.05,2.149.062,4.342,0,6.562,0,1.946,0,3.909-.08,5.846,0,4.148.08,8.844-1.1,10.851-4.731,1.371-2.485,1.141-5.518.884-8.348q-.305-3.316-.619-6.642v-.345c-.141-1.6-.292-3.184-.442-4.784h0c-.071-.769-.142-1.548-.221-2.317h0l-.159-1.716q1.105-.124,2.229-.212c3.352-.265,6.774-.2,9.657,1.433a12.838,12.838,0,0,1,5.5,7.225,29.027,29.027,0,0,1,1.38,6.633c.99,10.037-.61,20.163-.062,30.227C632.645,650.144,634.184,657.705,632.9,664.895Z" transform="translate(-69.618 -137.429)" fill="#6c63ff"/><path d="M659.473,696.542H639.194c-.168-2.3-.3-4.6-.38-6.907-.071-1.592-.124-3.193-.15-4.784q-.133-6.438.106-12.841a28.963,28.963,0,0,0,13.044,3.723,24.985,24.985,0,0,1,4.422,7.013,34.026,34.026,0,0,1,1.512,4.342.125.125,0,0,1,0,.062A58.048,58.048,0,0,1,659.473,696.542Z" transform="translate(-80.882 -146.905)" fill="#ffc1c7"/><path d="M657.143,675.3a94.36,94.36,0,0,0-22.728,3.007c-.982-4.846-.5-9.852,0-14.769l3.281-33.791c.239-2.5-.221-25.479,4.625-21.419,1.769,1.495,4.033,14.928,4.59,17.086.84,3.263,1.5,6.562,2.1,9.869,1.212,6.792,2.034,13.637,3.21,20.438C652.554,657.684,655.392,675.318,657.143,675.3Z" transform="translate(-80.33 -139.486)" fill="#6c63ff"/><path d="M583.2,512.146a4.422,4.422,0,0,0-.531-2.308,3.838,3.838,0,0,0-2.75-1.45c-3.705-.575-7.773.884-11.125-.778-1.769-.884-3.1-2.653-4.873-3.635-4.174-2.361-9.445,0-13.142,3.06A38.364,38.364,0,0,0,538.461,525.8c-1.645,5.678-2.308,12.319-7.013,15.919-1.946,1.486-4.422,2.308-5.881,4.289a10.971,10.971,0,0,0-1.557,5.306c-.486,4.316-.884,8.737.239,12.929.884,3.122,2.52,5.952,3.537,9.021a23.949,23.949,0,0,1-6.527,24.921,7.764,7.764,0,0,0,5.748,1,4.926,4.926,0,0,1-.831,2.538c6.014-.195,11.24-6.049,17.121-4.767,4.493.973,7,5.607,10.347,8.755,4.316,4.059,11.019,5.757,16.44,3.352s8.711-9.25,6.412-14.716c-2.653-6.191-10.692-8.676-13.5-14.822-2.167-4.767-.557-10.32-1.026-15.529-.4-4.475-2.326-8.64-3.537-12.965s-1.592-9.268.884-13.036c2.6-4,7.579-5.554,12.107-7.075C581.627,527.631,583.59,522.458,583.2,512.146Z" transform="translate(-67.311 -127.363)" fill="#3f3d56"/><path d="M581.127,612.461c.734-3.537,1.459-7.4.168-10.825-2.405-6.385-10.267-8.375-15.706-12.487a21.225,21.225,0,0,1-6.986-9.312c-.99-2.591-1.123-6.191,1.309-7.5a5.9,5.9,0,0,1,3.033-.531c8.472.195,16.237,4.8,22.737,10.25,3.776,3.175,7.367,6.81,9.25,11.364a37.1,37.1,0,0,1,2.149,10.214l1.327,11.5A180.22,180.22,0,0,1,599.938,635a87.664,87.664,0,0,1-.716,11.4,17.072,17.072,0,0,1-2.414,7.65c-2.936,4.095-8.578,5.014-13.619,5.156a23.524,23.524,0,0,1-5.686-.362c-8.375-1.822-14.725-13.548-8.393-20.791,2.653-3.078,6.739-3.157,8.269-7.376C579.429,625.09,579.925,618.324,581.127,612.461Z" transform="translate(-71.552 -135.315)" fill="#ffc1c7"/><path d="M572.217,617.7l6.606,10.8a4.934,4.934,0,0,1,.8,1.866c.186,1.406-.884,2.653-1.7,3.794-5.7,7.782-4.245,18.483-2.529,27.972a50.771,50.771,0,0,1-34.9-41.1c-.831-5.651-2.176-14.955,2.839-18.634C555.423,593.544,566.548,608.454,572.217,617.7Z" transform="translate(-69.442 -138.543)" fill="#6c63ff"/><path d="M612.678,592.634c-2.582-.424-5.306,0-7.729-1.114-4.21-1.937-5.174-7.384-5.589-12,0-.424-.062-.884-.08-1.388a38.389,38.389,0,0,1,4.891-4.254,24.034,24.034,0,0,1,5-2.2l4.669-1.645a26.755,26.755,0,0,1,1.008,3.8c.522,3.1.088,6.332.884,9.374a24.346,24.346,0,0,0,3.944,7.544l6.88,10.055c-1.247-.292-2.485-.628-3.714-.982C620.461,596.216,616.9,593.315,612.678,592.634Z" transform="translate(-76.333 -135.113)" fill="#3f3d56"/><path d="M113.36,780.89c2.653-4.873-.354-10.851-3.794-15.193s-7.614-8.844-7.526-14.406c.133-7.959,8.578-12.655,15.326-16.883a74.289,74.289,0,0,0,13.761-11.063,20.163,20.163,0,0,0,4.227-5.66c1.4-3.113,1.362-6.65,1.273-10.055q-.451-17.033-1.689-34.039" transform="translate(-18.833 -147.088)" fill="none" stroke="#3f3d56" stroke-miterlimit="10" stroke-width="4"/><path d="M150.515,671.342a12.381,12.381,0,0,0-6.191-10.17l-2.777,5.5.088-6.659a12.572,12.572,0,0,0-4.095-.5,12.381,12.381,0,1,0,12.982,11.824Z" transform="translate(-21.578 -145.459)" fill="#6c63ff"/><path d="M125.662,765.519a12.381,12.381,0,1,1,.6-9.993l-7.756,6.306,8.534-1.972a12.381,12.381,0,0,1-1.38,5.66Z" transform="translate(-18.861 -155.63)" fill="#6c63ff"/><path d="M120.057,737.385a12.381,12.381,0,0,1-3.935-24.346l-.071,5.111,2.812-5.562h0a12.381,12.381,0,0,1,13.009,11.859,12.24,12.24,0,0,1-.531,4.236,12.381,12.381,0,0,1-11.284,8.7Z" transform="translate(-19.384 -151.596)" fill="#6c63ff"/><path d="M154.182,714.763a12.381,12.381,0,1,1,5.492-23.232l-2.193,6.014,4.51-4.333a12.381,12.381,0,0,1,4.006,8.57,12.2,12.2,0,0,1-.31,3.422A12.381,12.381,0,0,1,154.182,714.763Z" transform="translate(-23.378 -148.987)" fill="#6c63ff"/><path d="M148.851,675.538c-2.865.309-5.651,1.2-8.525,1.38s-6.031-.5-7.853-2.741a38.4,38.4,0,0,1-2.29-4.042,8.845,8.845,0,0,0-3.131-2.945,12.381,12.381,0,1,0,23.206,8.242Q149.55,675.459,148.851,675.538Z" transform="translate(-21.585 -146.348)" opacity="0.1"/><path d="M154.159,715.687A12.381,12.381,0,0,1,142.353,698a9.171,9.171,0,0,1,2.494,2.494,40.59,40.59,0,0,0,2.459,4.1c1.937,2.273,5.235,3.016,8.233,2.883s5.89-.99,8.844-1.265c.416,0,.831-.062,1.256-.071A12.381,12.381,0,0,1,154.159,715.687Z" transform="translate(-23.356 -149.911)" opacity="0.1"/><path d="M120.089,738.345a12.381,12.381,0,0,1-11.9-17.475,10.152,10.152,0,0,1,2.653,2.52c.964,1.362,1.565,2.936,2.653,4.192,2.1,2.326,5.616,3.148,8.782,3.078s6.04-.822,9.091-1.061a12.381,12.381,0,0,1-11.276,8.746Z" transform="translate(-19.416 -152.555)" opacity="0.1"/><path d="M125.619,766.556a12.4,12.4,0,1,1-22.631-10.126,12.241,12.241,0,0,1,2.724,2.432c1.185,1.433,1.963,3.069,3.325,4.422,2.538,2.494,6.633,3.537,10.285,3.617a53.054,53.054,0,0,0,6.3-.345Z" transform="translate(-18.817 -156.668)" opacity="0.1"/><path d="M93.67,787.878s9.8-.3,12.753-2.405,15.034-4.608,15.795-1.238,14.725,16.8,3.67,16.856-25.7-1.716-28.653-3.538S93.67,787.878,93.67,787.878Z" transform="translate(-17.865 -159.692)" fill="#656380"/><path d="M126.082,800.612c-11.063.088-25.7-1.769-28.644-3.537C95.191,795.7,94.3,790.8,94,788.54H93.67s.619,7.906,3.537,9.728,17.59,3.6,28.653,3.537c3.193,0,4.289-1.159,4.227-2.839C129.672,799.957,128.452,800.585,126.082,800.612Z" transform="translate(-17.865 -160.381)" opacity="0.2"/><path d="M1037.958,756.34c4.678-8.667-.628-19.288-6.739-27.026s-13.548-15.777-13.389-25.647c.23-14.15,15.255-22.525,27.256-30.024a132.544,132.544,0,0,0,24.479-19.686c2.954-3.007,5.8-6.19,7.526-10.064,2.485-5.536,2.414-11.833,2.255-17.9q-.787-30.3-3-60.543" transform="translate(-124.733 -134.583)" fill="none" stroke="#3f3d56" stroke-miterlimit="10" stroke-width="4"/><path d="M1104.031,561.476a22.047,22.047,0,0,0-11.019-18.094l-4.944,9.781.15-11.842a22.109,22.109,0,1,0,15.813,20.155Z" transform="translate(-129.591 -131.687)" fill="#6c63ff"/><path d="M1059.827,729a22.109,22.109,0,1,1,1.061-17.776L1047.1,722.446l15.167-3.537A21.9,21.9,0,0,1,1059.827,729Z" transform="translate(-124.758 -149.771)" fill="#6c63ff"/><path d="M1049.995,678.946a22.109,22.109,0,0,1-7-43.334l-.115,9.1,5-9.9h.062a22.109,22.109,0,1,1,2.06,44.112Z" transform="translate(-125.794 -142.592)" fill="#6c63ff"/><path d="M1110.527,638.622a22.109,22.109,0,1,1,9.728-41.317l-3.9,10.692,8.03-7.7a21.967,21.967,0,0,1,7.137,15.238,21.658,21.658,0,0,1-.566,6.084A22.109,22.109,0,0,1,1110.527,638.622Z" transform="translate(-132.761 -137.935)" fill="#6c63ff"/><path d="M1101.055,568.94c-5.094.557-10.046,2.14-15.167,2.459s-10.727-.884-13.964-4.882c-1.769-2.14-2.653-4.846-4.086-7.19a15.651,15.651,0,0,0-5.554-5.227,22.109,22.109,0,1,0,41.273,14.654C1102.717,568.789,1101.886,568.851,1101.055,568.94Z" transform="translate(-129.585 -133.27)" opacity="0.1"/><path d="M1110.549,640.282a22.109,22.109,0,0,1-21-31.492,16.317,16.317,0,0,1,4.422,4.422c1.574,2.379,2.52,5.12,4.422,7.3,3.431,4.05,9.312,5.368,14.636,5.129s10.471-1.769,15.786-2.246c.734-.062,1.477-.115,2.22-.133A22.109,22.109,0,0,1,1110.549,640.282Z" transform="translate(-132.783 -139.595)" opacity="0.1"/><path d="M1049.974,680.665a22.109,22.109,0,0,1-21.225-31.085,17.9,17.9,0,0,1,4.661,4.493c1.716,2.423,2.786,5.209,4.793,7.438,3.732,4.148,9.993,5.616,15.636,5.483,5.465-.124,10.727-1.468,16.166-1.884A22.109,22.109,0,0,1,1049.974,680.665Z" transform="translate(-125.774 -144.312)" opacity="0.1"/><path d="M1059.852,730.854A22.109,22.109,0,0,1,1019.6,712.84a22.109,22.109,0,0,1,4.846,4.316c2.1,2.565,3.484,5.465,5.908,7.853,4.519,4.422,11.806,6.252,18.289,6.42a96.08,96.08,0,0,0,11.214-.575Z" transform="translate(-124.783 -151.627)" opacity="0.1"/><path d="M1002.94,768.768s17.422-.539,22.675-4.28,26.805-8.207,28.114-2.211,26.186,29.838,6.509,29.989-45.713-3.06-50.957-6.252S1002.94,768.768,1002.94,768.768Z" transform="translate(-123.011 -157.005)" fill="#656380"/><path d="M1060.592,791.427c-19.677.159-45.713-3.06-50.957-6.252-3.989-2.432-5.58-11.161-6.12-15.185h-.575s1.1,14.053,6.341,17.245,31.289,6.412,50.957,6.253c5.687-.044,7.641-2.061,7.535-5.059C1066.986,790.268,1064.819,791.4,1060.592,791.427Z" transform="translate(-123.011 -158.235)" opacity="0.2"/></g></svg>